<mxfile host="Electron" agent="Mozilla/5.0 (Macintosh; Intel Mac OS X 10_15_7) AppleWebKit/537.36 (KHTML, like Gecko) draw.io/25.0.2 Chrome/128.0.6613.186 Electron/32.2.5 Safari/537.36" version="25.0.2">
  <diagram name="Page-1" id="IOqMwiB0Rb1MaEXDMISf">
    <mxGraphModel dx="1114" dy="821" grid="1" gridSize="10" guides="1" tooltips="1" connect="1" arrows="1" fold="1" page="1" pageScale="1" pageWidth="827" pageHeight="1169" math="0" shadow="0">
      <root>
        <mxCell id="0" />
        <mxCell id="1" parent="0" />
        <mxCell id="Kpy5RAQ7J32lqg5ovgvg-10" value="_consumer_offsets" style="rounded=0;whiteSpace=wrap;html=1;fillColor=#f5f5f5;fontColor=#333333;strokeColor=#666666;verticalAlign=top;fontStyle=1" vertex="1" parent="1">
          <mxGeometry x="505" y="250" width="120" height="100" as="geometry" />
        </mxCell>
        <mxCell id="Kpy5RAQ7J32lqg5ovgvg-9" value="토픽 T1" style="rounded=0;whiteSpace=wrap;html=1;fillColor=#f5f5f5;fontColor=#333333;strokeColor=#666666;verticalAlign=top;fontStyle=1" vertex="1" parent="1">
          <mxGeometry x="505" y="88.75" width="120" height="132.5" as="geometry" />
        </mxCell>
        <mxCell id="Kpy5RAQ7J32lqg5ovgvg-8" value="컨슈머 그룹 1" style="rounded=0;whiteSpace=wrap;html=1;fillColor=#f5f5f5;fontColor=#333333;strokeColor=#666666;verticalAlign=top;fontStyle=1" vertex="1" parent="1">
          <mxGeometry x="220" y="97.5" width="120" height="95" as="geometry" />
        </mxCell>
        <mxCell id="Kpy5RAQ7J32lqg5ovgvg-7" value="토픽 T1" style="rounded=0;whiteSpace=wrap;html=1;fillColor=#f5f5f5;fontColor=#333333;strokeColor=#666666;verticalAlign=top;fontStyle=1" vertex="1" parent="1">
          <mxGeometry x="65" y="97.5" width="120" height="95" as="geometry" />
        </mxCell>
        <mxCell id="Kpy5RAQ7J32lqg5ovgvg-11" style="edgeStyle=orthogonalEdgeStyle;rounded=0;orthogonalLoop=1;jettySize=auto;html=1;endArrow=block;endFill=1;" edge="1" parent="1" source="Kpy5RAQ7J32lqg5ovgvg-1" target="Kpy5RAQ7J32lqg5ovgvg-2">
          <mxGeometry relative="1" as="geometry" />
        </mxCell>
        <mxCell id="Kpy5RAQ7J32lqg5ovgvg-1" value="파티션 0" style="rounded=0;whiteSpace=wrap;html=1;" vertex="1" parent="1">
          <mxGeometry x="90" y="150" width="70" height="30" as="geometry" />
        </mxCell>
        <mxCell id="Kpy5RAQ7J32lqg5ovgvg-12" style="edgeStyle=orthogonalEdgeStyle;rounded=0;orthogonalLoop=1;jettySize=auto;html=1;entryX=0;entryY=0.5;entryDx=0;entryDy=0;endArrow=block;endFill=1;" edge="1" parent="1" source="Kpy5RAQ7J32lqg5ovgvg-2" target="Kpy5RAQ7J32lqg5ovgvg-3">
          <mxGeometry relative="1" as="geometry" />
        </mxCell>
        <mxCell id="Kpy5RAQ7J32lqg5ovgvg-2" value="컨슈머 A" style="rounded=0;whiteSpace=wrap;html=1;" vertex="1" parent="1">
          <mxGeometry x="245" y="150" width="70" height="30" as="geometry" />
        </mxCell>
        <mxCell id="Kpy5RAQ7J32lqg5ovgvg-13" style="edgeStyle=orthogonalEdgeStyle;rounded=0;orthogonalLoop=1;jettySize=auto;html=1;entryX=0;entryY=0.5;entryDx=0;entryDy=0;endArrow=block;endFill=1;strokeWidth=2;" edge="1" parent="1" source="Kpy5RAQ7J32lqg5ovgvg-3" target="Kpy5RAQ7J32lqg5ovgvg-4">
          <mxGeometry relative="1" as="geometry" />
        </mxCell>
        <mxCell id="Kpy5RAQ7J32lqg5ovgvg-14" style="edgeStyle=orthogonalEdgeStyle;rounded=0;orthogonalLoop=1;jettySize=auto;html=1;endArrow=block;endFill=1;strokeWidth=2;" edge="1" parent="1" source="Kpy5RAQ7J32lqg5ovgvg-3" target="Kpy5RAQ7J32lqg5ovgvg-5">
          <mxGeometry relative="1" as="geometry" />
        </mxCell>
        <mxCell id="Kpy5RAQ7J32lqg5ovgvg-15" style="edgeStyle=orthogonalEdgeStyle;rounded=0;orthogonalLoop=1;jettySize=auto;html=1;entryX=0;entryY=0.5;entryDx=0;entryDy=0;endArrow=block;endFill=1;strokeWidth=2;" edge="1" parent="1" source="Kpy5RAQ7J32lqg5ovgvg-3" target="Kpy5RAQ7J32lqg5ovgvg-6">
          <mxGeometry relative="1" as="geometry" />
        </mxCell>
        <mxCell id="Kpy5RAQ7J32lqg5ovgvg-3" value="프로듀서 A" style="rounded=0;whiteSpace=wrap;html=1;" vertex="1" parent="1">
          <mxGeometry x="390" y="150" width="70" height="30" as="geometry" />
        </mxCell>
        <mxCell id="Kpy5RAQ7J32lqg5ovgvg-4" value="파티션 0" style="rounded=0;whiteSpace=wrap;html=1;" vertex="1" parent="1">
          <mxGeometry x="530" y="140" width="70" height="30" as="geometry" />
        </mxCell>
        <mxCell id="Kpy5RAQ7J32lqg5ovgvg-5" value="파티션 1" style="rounded=0;whiteSpace=wrap;html=1;" vertex="1" parent="1">
          <mxGeometry x="530" y="180" width="70" height="30" as="geometry" />
        </mxCell>
        <mxCell id="Kpy5RAQ7J32lqg5ovgvg-6" value="컨슈머 A" style="rounded=0;whiteSpace=wrap;html=1;" vertex="1" parent="1">
          <mxGeometry x="530" y="300" width="70" height="30" as="geometry" />
        </mxCell>
      </root>
    </mxGraphModel>
  </diagram>
</mxfile>
